<?xml version="1.0" standalone="no"?>
<svg xmlns:xlink="http://www.w3.org/1999/xlink" id="wave" style="transform:rotate(180deg); transition: 0.3s" viewBox="0 0 1440 410" version="1.1" xmlns="http://www.w3.org/2000/svg"><defs><linearGradient id="sw-gradient-0" x1="0" x2="0" y1="1" y2="0"><stop stop-color="rgba(14.577, 172.591, 190.467, 1)" offset="0%"/><stop stop-color="rgba(21.985, 15.429, 0.938, 1)" offset="100%"/></linearGradient></defs><path style="transform:translate(0, 0px); opacity:1" fill="url(#sw-gradient-0)" d="M0,41L13.3,95.7C26.7,150,53,260,80,307.5C106.7,355,133,342,160,280.2C186.7,219,213,109,240,88.8C266.7,68,293,137,320,157.2C346.7,178,373,150,400,143.5C426.7,137,453,150,480,191.3C506.7,232,533,301,560,314.3C586.7,328,613,287,640,225.5C666.7,164,693,82,720,88.8C746.7,96,773,191,800,198.2C826.7,205,853,123,880,95.7C906.7,68,933,96,960,129.8C986.7,164,1013,205,1040,205C1066.7,205,1093,164,1120,136.7C1146.7,109,1173,96,1200,75.2C1226.7,55,1253,27,1280,13.7C1306.7,0,1333,0,1360,34.2C1386.7,68,1413,137,1440,184.5C1466.7,232,1493,260,1520,259.7C1546.7,260,1573,232,1600,246C1626.7,260,1653,314,1680,280.2C1706.7,246,1733,123,1760,109.3C1786.7,96,1813,191,1840,205C1866.7,219,1893,150,1907,116.2L1920,82L1920,410L1906.7,410C1893.3,410,1867,410,1840,410C1813.3,410,1787,410,1760,410C1733.3,410,1707,410,1680,410C1653.3,410,1627,410,1600,410C1573.3,410,1547,410,1520,410C1493.3,410,1467,410,1440,410C1413.3,410,1387,410,1360,410C1333.3,410,1307,410,1280,410C1253.3,410,1227,410,1200,410C1173.3,410,1147,410,1120,410C1093.3,410,1067,410,1040,410C1013.3,410,987,410,960,410C933.3,410,907,410,880,410C853.3,410,827,410,800,410C773.3,410,747,410,720,410C693.3,410,667,410,640,410C613.3,410,587,410,560,410C533.3,410,507,410,480,410C453.3,410,427,410,400,410C373.3,410,347,410,320,410C293.3,410,267,410,240,410C213.3,410,187,410,160,410C133.3,410,107,410,80,410C53.3,410,27,410,13,410L0,410Z"/></svg>