<?xml version="1.0" standalone="no"?>
<svg xmlns:xlink="http://www.w3.org/1999/xlink" id="wave" style="transform:rotate(180deg); transition: 0.3s" viewBox="0 0 1440 490" version="1.1" xmlns="http://www.w3.org/2000/svg"><defs><linearGradient id="sw-gradient-0" x1="0" x2="0" y1="1" y2="0"><stop stop-color="rgba(18.416, 213.293, 216.65, 1)" offset="0%"/><stop stop-color="rgba(20.847, 20.368, 19.31, 1)" offset="100%"/></linearGradient></defs><path style="transform:translate(0, 0px); opacity:1" fill="url(#sw-gradient-0)" d="M0,392L10,359.3C20,327,40,261,60,253.2C80,245,100,294,120,269.5C140,245,160,147,180,130.7C200,114,220,180,240,204.2C260,229,280,212,300,220.5C320,229,340,261,360,261.3C380,261,400,229,420,236.8C440,245,460,294,480,310.3C500,327,520,310,540,294C560,278,580,261,600,228.7C620,196,640,147,660,147C680,147,700,196,720,220.5C740,245,760,245,780,212.3C800,180,820,114,840,130.7C860,147,880,245,900,245C920,245,940,147,960,98C980,49,1000,49,1020,49C1040,49,1060,49,1080,98C1100,147,1120,245,1140,236.8C1160,229,1180,114,1200,122.5C1220,131,1240,261,1260,318.5C1280,376,1300,359,1320,310.3C1340,261,1360,180,1380,138.8C1400,98,1420,98,1430,98L1440,98L1440,490L1430,490C1420,490,1400,490,1380,490C1360,490,1340,490,1320,490C1300,490,1280,490,1260,490C1240,490,1220,490,1200,490C1180,490,1160,490,1140,490C1120,490,1100,490,1080,490C1060,490,1040,490,1020,490C1000,490,980,490,960,490C940,490,920,490,900,490C880,490,860,490,840,490C820,490,800,490,780,490C760,490,740,490,720,490C700,490,680,490,660,490C640,490,620,490,600,490C580,490,560,490,540,490C520,490,500,490,480,490C460,490,440,490,420,490C400,490,380,490,360,490C340,490,320,490,300,490C280,490,260,490,240,490C220,490,200,490,180,490C160,490,140,490,120,490C100,490,80,490,60,490C40,490,20,490,10,490L0,490Z"/></svg>